<svg xmlns="http://www.w3.org/2000/svg" xmlns:xlink="http://www.w3.org/1999/xlink" version="1.1" width="256" height="256" viewBox="0 0 256 256" xml:space="preserve">

<defs>
</defs>
<g style="stroke: none; stroke-width: 0; stroke-dasharray: none; stroke-linecap: butt; stroke-linejoin: miter; stroke-miterlimit: 10; fill: none; fill-rule: nonzero; opacity: 1;" transform="translate(1.4065934065934016 1.4065934065934016) scale(2.81 2.81)" >
	<path d="M 4.27 10.205 L 4.27 10.205 c 0.584 -0.242 0.629 -0.781 0.629 -0.941 c 0 -0.16 -0.045 -0.699 -0.628 -0.941 C 3.977 8.202 3.748 7.973 3.626 7.679 c -0.122 -0.294 -0.122 -0.617 0 -0.911 l 0.775 -1.872 C 4.653 4.29 5.35 4.001 5.957 4.252 c 0.584 0.242 0.997 -0.108 1.109 -0.221 c 0.113 -0.113 0.462 -0.526 0.221 -1.11 c -0.122 -0.294 -0.122 -0.617 0 -0.911 c 0.122 -0.294 0.351 -0.523 0.644 -0.644 l 1.872 -0.775 c 0.606 -0.251 1.304 0.038 1.555 0.644 c 0.242 0.583 0.781 0.628 0.94 0.628 s 0.699 -0.045 0.941 -0.628 c 0.122 -0.294 0.35 -0.523 0.644 -0.644 c 0.294 -0.122 0.617 -0.122 0.911 0 l 1.871 0.775 c 0.294 0.122 0.523 0.35 0.644 0.644 s 0.122 0.617 0 0.911 c -0.242 0.583 0.108 0.997 0.221 1.11 c 0.113 0.113 0.526 0.463 1.109 0.221 c 0.294 -0.122 0.617 -0.122 0.911 0 c 0.294 0.122 0.523 0.351 0.644 0.644 l 0.775 1.871 c 0.122 0.294 0.122 0.617 0 0.911 c -0.122 0.294 -0.351 0.523 -0.644 0.644 c -0.583 0.241 -0.628 0.781 -0.628 0.941 c 0 0.16 0.045 0.699 0.629 0.941 c 0.606 0.251 0.895 0.949 0.644 1.555 l -0.775 1.872 c -0.122 0.294 -0.351 0.523 -0.644 0.644 c -0.294 0.122 -0.617 0.122 -0.911 0 c -0.583 -0.241 -0.997 0.108 -1.11 0.221 c -0.113 0.113 -0.462 0.526 -0.221 1.11 c 0.251 0.606 -0.038 1.304 -0.644 1.556 l -1.872 0.775 c -0.147 0.061 -0.301 0.091 -0.456 0.091 c -0.154 0 -0.309 -0.03 -0.456 -0.091 c -0.294 -0.122 -0.523 -0.351 -0.644 -0.644 c -0.242 -0.583 -0.781 -0.628 -0.941 -0.628 l 0 0 c -0.16 0 -0.699 0.045 -0.941 0.629 c -0.251 0.606 -0.949 0.894 -1.555 0.644 l -1.872 -0.775 c -0.606 -0.251 -0.895 -0.949 -0.644 -1.555 c 0.242 -0.583 -0.108 -0.997 -0.221 -1.11 c -0.113 -0.113 -0.526 -0.463 -1.11 -0.221 c -0.606 0.25 -1.304 -0.038 -1.555 -0.644 L 3.626 11.76 C 3.375 11.154 3.664 10.456 4.27 10.205 z" style="stroke: none; stroke-width: 1; stroke-dasharray: none; stroke-linecap: butt; stroke-linejoin: miter; stroke-miterlimit: 10; fill: rgb(101,177,239); fill-rule: nonzero; opacity: 1;" transform=" matrix(3.89 0 0 3.89 -1.9444444444444287 -1.9444444444444287) " stroke-linecap="round" />
	<path d="M 23.277 77.712 c 0.558 0 1.011 -0.452 1.011 -1.011 s -0.453 -1.011 -1.011 -1.011 h -6.216 c -0.558 0 -1.011 0.452 -1.011 1.011 v 12.288 c 0 0.559 0.453 1.011 1.011 1.011 h 6.216 c 0.558 0 1.011 -0.452 1.011 -1.011 s -0.453 -1.011 -1.011 -1.011 h -5.204 v -4.122 h 3.32 c 0.558 0 1.011 -0.452 1.011 -1.011 s -0.453 -1.011 -1.011 -1.011 h -3.32 v -4.121 H 23.277 z" style="stroke: none; stroke-width: 1; stroke-dasharray: none; stroke-linecap: butt; stroke-linejoin: miter; stroke-miterlimit: 10; fill: rgb(101,177,239); fill-rule: nonzero; opacity: 1;" transform=" matrix(1 0 0 1 0 0) " stroke-linecap="round" />
	<path d="M 8.515 75.69 h -4.23 c -0.558 0 -1.011 0.452 -1.011 1.011 v 6.143 v 6.144 C 3.274 89.548 3.726 90 4.285 90 s 1.011 -0.452 1.011 -1.011 v -5.133 h 3.219 c 0.738 0 1.338 0.6 1.338 1.338 v 3.795 c 0 0.559 0.453 1.011 1.011 1.011 s 1.011 -0.452 1.011 -1.011 v -3.795 c 0 -0.914 -0.369 -1.743 -0.964 -2.349 c 0.595 -0.607 0.964 -1.435 0.964 -2.349 V 79.05 C 11.876 77.198 10.368 75.69 8.515 75.69 z M 5.296 81.833 v -4.121 h 3.219 c 0.738 0 1.338 0.6 1.338 1.338 v 1.445 c 0 0.738 -0.6 1.338 -1.338 1.338 H 5.296 z" style="stroke: none; stroke-width: 1; stroke-dasharray: none; stroke-linecap: butt; stroke-linejoin: miter; stroke-miterlimit: 10; fill: rgb(101,177,239); fill-rule: nonzero; opacity: 1;" transform=" matrix(1 0 0 1 0 0) " stroke-linecap="round" />
	<path d="M 47.687 75.69 h -7.752 c -0.558 0 -1.011 0.452 -1.011 1.011 s 0.453 1.011 1.011 1.011 H 42.8 v 11.277 c 0 0.559 0.453 1.011 1.011 1.011 c 0.558 0 1.011 -0.452 1.011 -1.011 V 77.712 h 2.864 c 0.559 0 1.011 -0.452 1.011 -1.011 S 48.246 75.69 47.687 75.69 z" style="stroke: none; stroke-width: 1; stroke-dasharray: none; stroke-linecap: butt; stroke-linejoin: miter; stroke-miterlimit: 10; fill: rgb(101,177,239); fill-rule: nonzero; opacity: 1;" transform=" matrix(1 0 0 1 0 0) " stroke-linecap="round" />
	<path d="M 31.056 77.712 h 1.14 c 0.811 0 1.471 0.617 1.471 1.376 c 0 0.559 0.453 1.011 1.011 1.011 c 0.558 0 1.011 -0.452 1.011 -1.011 c 0 -1.873 -1.567 -3.398 -3.493 -3.398 h -1.14 c -1.999 0 -3.625 1.581 -3.625 3.525 v 1.117 c 0 1.943 1.626 3.525 3.625 3.525 h 1.008 c 0.884 0 1.603 0.674 1.603 1.503 v 1.116 c 0 0.829 -0.719 1.503 -1.603 1.503 h -1.14 c -0.811 0 -1.471 -0.617 -1.471 -1.376 c 0 -0.559 -0.453 -1.011 -1.011 -1.011 s -1.011 0.452 -1.011 1.011 c 0 1.873 1.567 3.398 3.494 3.398 h 1.14 c 1.999 0 3.625 -1.581 3.625 -3.525 v -1.116 c 0 -1.944 -1.626 -3.525 -3.625 -3.525 h -1.008 c -0.884 0 -1.603 -0.674 -1.603 -1.502 v -1.117 C 29.453 78.386 30.172 77.712 31.056 77.712 z" style="stroke: none; stroke-width: 1; stroke-dasharray: none; stroke-linecap: butt; stroke-linejoin: miter; stroke-miterlimit: 10; fill: rgb(101,177,239); fill-rule: nonzero; opacity: 1;" transform=" matrix(1 0 0 1 0 0) " stroke-linecap="round" />
	<path d="M 63.83 75.69 h -2.329 c -2.019 0 -3.661 1.642 -3.661 3.661 v 9.638 c 0 0.559 0.452 1.011 1.011 1.011 s 1.011 -0.452 1.011 -1.011 v -5.133 h 5.605 v 5.133 c 0 0.559 0.452 1.011 1.011 1.011 s 1.011 -0.452 1.011 -1.011 V 79.35 C 67.491 77.332 65.849 75.69 63.83 75.69 z M 59.863 81.833 V 79.35 c 0 -0.904 0.735 -1.638 1.638 -1.638 h 2.329 c 0.904 0 1.638 0.735 1.638 1.638 v 2.483 H 59.863 z" style="stroke: none; stroke-width: 1; stroke-dasharray: none; stroke-linecap: butt; stroke-linejoin: miter; stroke-miterlimit: 10; fill: rgb(101,177,239); fill-rule: nonzero; opacity: 1;" transform=" matrix(1 0 0 1 0 0) " stroke-linecap="round" />
	<path d="M 85.715 75.69 c -0.559 0 -1.011 0.452 -1.011 1.011 v 12.288 c 0 0.559 0.452 1.011 1.011 1.011 s 1.011 -0.452 1.011 -1.011 V 76.701 C 86.726 76.142 86.274 75.69 85.715 75.69 z" style="stroke: none; stroke-width: 1; stroke-dasharray: none; stroke-linecap: butt; stroke-linejoin: miter; stroke-miterlimit: 10; fill: rgb(101,177,239); fill-rule: nonzero; opacity: 1;" transform=" matrix(1 0 0 1 0 0) " stroke-linecap="round" />
	<path d="M 77.482 75.69 h -4.498 c -0.559 0 -1.011 0.452 -1.011 1.011 v 6.892 v 5.396 c 0 0.559 0.452 1.011 1.011 1.011 s 1.011 -0.452 1.011 -1.011 v -4.385 h 3.487 c 1.878 0 3.406 -1.528 3.406 -3.405 v -2.104 C 80.888 77.217 79.36 75.69 77.482 75.69 z M 78.866 81.199 c 0 0.762 -0.62 1.383 -1.384 1.383 h -3.487 v -4.87 h 3.487 c 0.763 0 1.384 0.62 1.384 1.383 V 81.199 z" style="stroke: none; stroke-width: 1; stroke-dasharray: none; stroke-linecap: butt; stroke-linejoin: miter; stroke-miterlimit: 10; fill: rgb(101,177,239); fill-rule: nonzero; opacity: 1;" transform=" matrix(1 0 0 1 0 0) " stroke-linecap="round" />
	<path d="M 59.282 31.58 c -0.107 -1.12 -0.38 -2.192 -0.795 -3.19 c -1.67 -4.021 -5.634 -6.848 -10.26 -6.848 c -2.158 0 -4.171 0.615 -5.875 1.68 c -2.633 1.646 -4.526 4.365 -5.07 7.544 h -1.266 c -4.384 0 -7.937 3.554 -7.937 7.937 v 0 c 0 4.384 3.554 7.937 7.937 7.937 h 19.765 c 4.384 0 7.937 -3.554 7.937 -7.937 v 0 C 63.718 35.577 61.91 32.874 59.282 31.58 z" style="stroke: none; stroke-width: 1; stroke-dasharray: none; stroke-linecap: butt; stroke-linejoin: miter; stroke-miterlimit: 10; fill: rgb(255,255,255); fill-rule: nonzero; opacity: 1;" transform=" matrix(1 0 0 1 0 0) " stroke-linecap="round" />
</g>
</svg>