<svg xmlns="http://www.w3.org/2000/svg"  viewBox="0 0 40 40" width="40px" height="40px"><path fill="#ffffff" d="M63.266-77.509l-13.88-24.04c-1.96-3.39-5.61-5.5-9.53-5.5h-27.76c-3.92,0-7.57,2.11-9.53,5.5 l-13.88,24.04c-1.96,3.39-1.96,7.61,0,11l13.88,24.04c1.96,3.4,5.61,5.5,9.53,5.5h27.76c3.92,0,7.57-2.1,9.53-5.5l13.88-24.04 C65.226-69.899,65.226-74.119,63.266-77.509z M40.856-58.259c-3.58,3.97-8.49,6.31-13.83,6.59c-0.36,0.02-0.71,0.03-1.07,0.03 c-4.95,0-9.66-1.8-13.37-5.14c-8.2-7.38-8.87-20.06-1.48-28.27c0.57-0.63,1.18-1.23,1.83-1.78c1.25-1.08,3.14-0.94,4.23,0.32 c1.08,1.25,0.93,3.15-0.33,4.23c-0.44,0.38-0.87,0.8-1.27,1.25c-5.17,5.74-4.71,14.62,1.04,19.79c2.78,2.51,6.36,3.78,10.11,3.58 c3.74-0.2,7.18-1.84,9.68-4.62c5.17-5.74,4.7-14.62-1.04-19.79c-1.23-1.11-1.33-3.01-0.22-4.24c1.11-1.23,3-1.33,4.24-0.22 C47.576-79.149,48.236-66.469,40.856-58.259z M22.976-73.039v-16.96c0-1.66,1.35-3,3-3c1.66,0,3,1.34,3,3v16.96c0,1.65-1.34,3-3,3 c-0.82,0-1.58-0.34-2.12-0.88C23.316-71.459,22.976-72.219,22.976-73.039z M38.096,16.701l-6.2-10.5 c-0.56-0.95-1.35-1.73-2.27-2.27l-0.16-0.28h-0.34c-0.87-0.42-1.84-0.65-2.83-0.65h-12.63c-1,0-1.96,0.23-2.83,0.65h-0.44 l-0.22,0.37c-0.85,0.54-1.58,1.28-2.11,2.18l-6.2,10.5c-0.57,0.97-0.87,2.04-0.9,3.12l-0.1,0.18l0.1,0.18 c0.03,1.08,0.33,2.15,0.9,3.12l6.2,10.5c0.53,0.9,1.26,1.64,2.12,2.18l0.21,0.36h0.42c0.88,0.43,1.84,0.66,2.85,0.66h12.63 c1,0,1.97-0.23,2.85-0.66h0.32l0.15-0.26c0.93-0.55,1.72-1.32,2.28-2.28l6.2-10.5c0.6-1.02,0.9-2.16,0.9-3.3 S38.696,17.721,38.096,16.701z M15.656,25.071c2.66,2.4,6.78,2.18,9.17-0.48c2.4-2.66,2.18-6.78-0.48-9.17 c-0.62-0.56-0.67-1.51-0.11-2.12c0.55-0.62,1.5-0.67,2.12-0.11c3.89,3.5,4.2,9.52,0.7,13.41c-1.87,2.08-4.46,3.14-7.06,3.14 c-2.27,0-4.54-0.81-6.35-2.44c-3.89-3.5-4.21-9.52-0.7-13.41c0.27-0.3,0.56-0.59,0.86-0.85c0.63-0.54,1.58-0.46,2.12,0.16 c0.54,0.63,0.47,1.58-0.16,2.12c-0.21,0.18-0.41,0.37-0.6,0.58C12.776,18.561,12.996,22.681,15.656,25.071z M18.496,18.501v-7 c0-0.83,0.68-1.5,1.5-1.5c0.83,0,1.5,0.67,1.5,1.5v7c0,0.83-0.67,1.5-1.5,1.5C19.176,20.001,18.496,19.331,18.496,18.501z M33.126,85.461c-0.07-0.77-0.3-1.52-0.7-2.21l-4.33-7.5c-0.4-0.7-0.94-1.28-1.58-1.73l-0.3-0.52h-0.6 c-0.71-0.33-1.48-0.5-2.28-0.5h-8.66c-0.8,0-1.57,0.17-2.28,0.5h-0.6l-0.3,0.52c-0.64,0.45-1.18,1.03-1.58,1.73l-4.33,7.5 c-0.4,0.69-0.63,1.44-0.7,2.21l-0.3,0.52l0.29,0.51c0.07,0.78,0.3,1.56,0.71,2.26l4.33,7.5c0.41,0.71,0.97,1.31,1.62,1.76 l0.26,0.45h0.51c0.73,0.35,1.54,0.54,2.37,0.54h8.66c0.83,0,1.64-0.19,2.37-0.54h0.51l0.26-0.45c0.65-0.45,1.21-1.05,1.62-1.76 l4.33-7.5c0.41-0.7,0.64-1.48,0.71-2.26l0.29-0.51L33.126,85.461z M16.036,89.511c1.82,1.63,4.63,1.49,6.26-0.33 c1.64-1.82,1.49-4.62-0.33-6.26c-0.46-0.42-0.49-1.13-0.08-1.59c0.42-0.46,1.13-0.5,1.59-0.08c2.74,2.46,2.96,6.7,0.5,9.44 c-1.2,1.32-2.84,2.11-4.62,2.2c-0.12,0.01-0.24,0.01-0.36,0.01c-1.65,0-3.23-0.6-4.46-1.72c-1.33-1.19-2.11-2.83-2.21-4.61 c-0.09-1.79,0.52-3.5,1.71-4.83c0.19-0.21,0.39-0.41,0.61-0.59c0.47-0.41,1.18-0.35,1.59,0.12c0.4,0.47,0.35,1.18-0.12,1.58 c-0.15,0.13-0.28,0.26-0.41,0.4c-0.79,0.88-1.19,2.01-1.13,3.2C14.636,87.631,15.156,88.721,16.036,89.511z M17.876,85.851v-5.73 c0-0.62,0.51-1.12,1.13-1.12s1.12,0.5,1.12,1.12v5.73c0,0.62-0.5,1.13-1.12,1.13S17.876,86.471,17.876,85.851z M25.636,129.631 c-0.05-0.49-0.21-0.97-0.47-1.41l-2.05-3.49c-0.26-0.43-0.6-0.8-1.01-1.08l-0.18-0.3h-0.34c-0.46-0.23-0.97-0.35-1.49-0.35h-4.22 c-0.52,0-1.03,0.12-1.49,0.35h-0.26l-0.13,0.22c-0.46,0.28-0.85,0.68-1.13,1.16l-2.06,3.49c-0.29,0.49-0.45,1.02-0.48,1.57 l-0.11,0.19l0.11,0.19c0.02,0.56,0.18,1.11,0.48,1.61l2.06,3.49c0.29,0.49,0.69,0.9,1.17,1.19l0.09,0.15h0.18 c0.48,0.26,1.02,0.39,1.57,0.39h4.22c0.56,0,1.1-0.14,1.58-0.39h0.25l0.14-0.23c0.42-0.28,0.78-0.66,1.05-1.11l2.05-3.49 c0.27-0.45,0.43-0.95,0.47-1.46l0.2-0.34L25.636,129.631z M16.366,131.891c0.48,0.44,1.08,0.66,1.74,0.62 c0.64-0.03,1.24-0.32,1.67-0.8c0.43-0.47,0.65-1.09,0.62-1.74c-0.04-0.64-0.32-1.23-0.8-1.67c-0.25-0.22-0.27-0.6-0.04-0.84 c0.22-0.25,0.6-0.27,0.84-0.05c0.72,0.65,1.14,1.53,1.19,2.5c0.06,0.96-0.27,1.89-0.92,2.61c-0.64,0.72-1.53,1.14-2.5,1.19h-0.19 c-0.89,0-1.75-0.32-2.41-0.92c-0.72-0.65-1.15-1.54-1.2-2.5c-0.05-0.97,0.28-1.89,0.93-2.61c0.1-0.11,0.21-0.22,0.32-0.32 c0.25-0.22,0.63-0.19,0.85,0.06c0.22,0.25,0.19,0.63-0.06,0.84c-0.08,0.07-0.15,0.14-0.22,0.22c-0.43,0.48-0.65,1.1-0.62,1.74 C15.606,130.871,15.886,131.461,16.366,131.891z M17.376,130.001v-2.95c0-0.33,0.27-0.6,0.6-0.6c0.34,0,0.6,0.27,0.6,0.6v2.95 c0,0.33-0.26,0.6-0.6,0.6C17.646,130.601,17.376,130.331,17.376,130.001z"/><path fill="#6DB33F" d="M29.626,3.931l-0.16-0.28h-19.07l-0.22,0.37l-9.21,15.8l-0.1,0.18l0.1,0.18l9.22,15.8l0.21,0.36 h19.07l0.15-0.26l9.38-16.08L29.626,3.931z M27.056,26.601c-1.87,2.08-4.46,3.14-7.06,3.14c-2.27,0-4.54-0.81-6.35-2.44 c-3.89-3.5-4.21-9.52-0.7-13.41c0.27-0.3,0.56-0.59,0.86-0.85c0.63-0.54,1.58-0.46,2.12,0.16c0.54,0.63,0.47,1.58-0.16,2.12 c-0.21,0.18-0.41,0.37-0.6,0.58c-2.39,2.66-2.17,6.78,0.49,9.17c2.66,2.4,6.78,2.18,9.17-0.48c2.4-2.66,2.18-6.78-0.48-9.17 c-0.62-0.56-0.67-1.51-0.11-2.12c0.55-0.62,1.5-0.67,2.12-0.11C30.246,16.691,30.556,22.711,27.056,26.601z M21.496,11.501v7 c0,0.83-0.67,1.5-1.5,1.5c-0.82,0-1.5-0.67-1.5-1.5v-7c0-0.83,0.68-1.5,1.5-1.5C20.826,10.001,21.496,10.671,21.496,11.501z"/><path fill="#5e9c76" d="M38.096,16.701l-6.2-10.5c-0.56-0.95-1.35-1.73-2.27-2.27c-0.16-0.11-0.33-0.2-0.5-0.28 c-0.87-0.42-1.84-0.65-2.83-0.65h-12.63c-1,0-1.96,0.23-2.83,0.65c-0.23,0.11-0.45,0.23-0.66,0.37c-0.85,0.54-1.58,1.28-2.11,2.18 l-6.2,10.5c-0.57,0.97-0.87,2.04-0.9,3.12v0.36c0.03,1.08,0.33,2.15,0.9,3.12l6.2,10.5c0.53,0.9,1.26,1.64,2.12,2.18 c0.2,0.14,0.41,0.25,0.63,0.36c0.88,0.43,1.84,0.66,2.85,0.66h12.63c1,0,1.97-0.23,2.85-0.66c0.16-0.08,0.32-0.16,0.47-0.26 c0.93-0.55,1.72-1.32,2.28-2.28l6.2-10.5c0.6-1.02,0.9-2.16,0.9-3.3S38.696,17.721,38.096,16.701z M26.296,36.001h-12.63 c-1.94,0-3.75-1.04-4.74-2.7l-6.2-10.5c-1.02-1.73-1.02-3.87,0-5.6l6.2-10.5c0.99-1.66,2.8-2.7,4.74-2.7h12.63 c1.94,0,3.75,1.04,4.74,2.7l6.2,10.5c1.01,1.73,1.01,3.87,0,5.6l-6.2,10.5C30.046,34.961,28.236,36.001,26.296,36.001z"/></svg>